<mxfile host="65bd71144e">
    <diagram id="X9Oswj4-0tewda357s6Y" name="Page-1">
        <mxGraphModel dx="1066" dy="619" grid="1" gridSize="10" guides="1" tooltips="1" connect="1" arrows="1" fold="1" page="1" pageScale="1" pageWidth="850" pageHeight="1100" math="0" shadow="0">
            <root>
                <mxCell id="0"/>
                <mxCell id="1" parent="0"/>
                <mxCell id="14" style="edgeStyle=none;html=1;entryX=0.5;entryY=0;entryDx=0;entryDy=0;" edge="1" parent="1" source="2" target="13">
                    <mxGeometry relative="1" as="geometry"/>
                </mxCell>
                <mxCell id="2" value="ServerSocket(direccion, puerto)" style="whiteSpace=wrap;html=1;" parent="1" vertex="1">
                    <mxGeometry x="23" y="65" width="180" height="60" as="geometry"/>
                </mxCell>
                <mxCell id="3" value="Crea y abre un Socket de&lt;br&gt;escucha para el servidor&lt;br&gt;con puerto y direccion&lt;br&gt;con el InetAddress.getLocalHost()" style="text;html=1;align=center;verticalAlign=middle;resizable=0;points=[];autosize=1;strokeColor=none;fillColor=none;" parent="1" vertex="1">
                    <mxGeometry x="203" y="60" width="200" height="70" as="geometry"/>
                </mxCell>
                <mxCell id="4" value="&lt;font style=&quot;font-size: 18px;&quot;&gt;&lt;u&gt;&lt;b&gt;SERVIDOR&lt;/b&gt;&lt;/u&gt;&lt;/font&gt;" style="text;html=1;align=center;verticalAlign=middle;resizable=0;points=[];autosize=1;strokeColor=none;fillColor=none;" parent="1" vertex="1">
                    <mxGeometry x="153" y="10" width="120" height="40" as="geometry"/>
                </mxCell>
                <mxCell id="5" value="&lt;font style=&quot;font-size: 18px;&quot;&gt;&lt;u&gt;&lt;b&gt;CLIENTE&lt;/b&gt;&lt;/u&gt;&lt;/font&gt;" style="text;html=1;align=center;verticalAlign=middle;resizable=0;points=[];autosize=1;strokeColor=none;fillColor=none;" parent="1" vertex="1">
                    <mxGeometry x="593" y="10" width="100" height="40" as="geometry"/>
                </mxCell>
                <mxCell id="8" value="el cliente crea un socket&lt;br&gt;para conectarnos al servidor" style="text;html=1;align=center;verticalAlign=middle;resizable=0;points=[];autosize=1;strokeColor=none;fillColor=none;" parent="1" vertex="1">
                    <mxGeometry x="608" y="75" width="170" height="40" as="geometry"/>
                </mxCell>
                <mxCell id="9" value="" style="endArrow=none;dashed=1;html=1;fontSize=18;" parent="1" edge="1">
                    <mxGeometry width="50" height="50" relative="1" as="geometry">
                        <mxPoint x="423" y="670.8333129882812" as="sourcePoint"/>
                        <mxPoint x="423" y="10" as="targetPoint"/>
                    </mxGeometry>
                </mxCell>
                <mxCell id="28" style="edgeStyle=none;html=1;entryX=0.5;entryY=0;entryDx=0;entryDy=0;" edge="1" parent="1" source="10" target="27">
                    <mxGeometry relative="1" as="geometry"/>
                </mxCell>
                <mxCell id="10" value="direccion&lt;br&gt;puerto" style="whiteSpace=wrap;html=1;" parent="1" vertex="1">
                    <mxGeometry x="468" y="165" width="140" height="60" as="geometry"/>
                </mxCell>
                <mxCell id="12" value="definimos los parametros&lt;br&gt;de conexión en variables&lt;br&gt;con InetAddress.getLocalHost()" style="text;html=1;align=center;verticalAlign=middle;resizable=0;points=[];autosize=1;strokeColor=none;fillColor=none;" parent="1" vertex="1">
                    <mxGeometry x="608" y="165" width="190" height="60" as="geometry"/>
                </mxCell>
                <mxCell id="17" style="edgeStyle=none;html=1;entryX=0.5;entryY=0;entryDx=0;entryDy=0;" edge="1" parent="1" source="13" target="16">
                    <mxGeometry relative="1" as="geometry"/>
                </mxCell>
                <mxCell id="13" value="Socket()" style="whiteSpace=wrap;html=1;" vertex="1" parent="1">
                    <mxGeometry x="43" y="165" width="140" height="60" as="geometry"/>
                </mxCell>
                <mxCell id="15" value="Crea un Socket de&lt;br&gt;escucha para un cliente" style="text;html=1;align=center;verticalAlign=middle;resizable=0;points=[];autosize=1;strokeColor=none;fillColor=none;" vertex="1" parent="1">
                    <mxGeometry x="183" y="175" width="150" height="40" as="geometry"/>
                </mxCell>
                <mxCell id="20" style="edgeStyle=none;html=1;entryX=0.5;entryY=0;entryDx=0;entryDy=0;" edge="1" parent="1" source="16" target="19">
                    <mxGeometry relative="1" as="geometry"/>
                </mxCell>
                <mxCell id="16" value="setSoTimeout(tiempo)" style="whiteSpace=wrap;html=1;" vertex="1" parent="1">
                    <mxGeometry x="43" y="265" width="140" height="60" as="geometry"/>
                </mxCell>
                <mxCell id="18" value="Establecemos el tiempo&lt;br&gt;de espera del cliente&lt;br&gt;durante el .accept()" style="text;html=1;align=center;verticalAlign=middle;resizable=0;points=[];autosize=1;strokeColor=none;fillColor=none;" vertex="1" parent="1">
                    <mxGeometry x="183" y="265" width="150" height="60" as="geometry"/>
                </mxCell>
                <mxCell id="24" style="edgeStyle=none;html=1;entryX=0.5;entryY=0;entryDx=0;entryDy=0;" edge="1" parent="1" source="19" target="22">
                    <mxGeometry relative="1" as="geometry"/>
                </mxCell>
                <mxCell id="19" value=".accept()" style="whiteSpace=wrap;html=1;" vertex="1" parent="1">
                    <mxGeometry x="43" y="365" width="140" height="60" as="geometry"/>
                </mxCell>
                <mxCell id="21" value="aceptamos la&lt;br&gt;conexión del cliente" style="text;html=1;align=center;verticalAlign=middle;resizable=0;points=[];autosize=1;strokeColor=none;fillColor=none;" vertex="1" parent="1">
                    <mxGeometry x="183" y="375" width="130" height="40" as="geometry"/>
                </mxCell>
                <mxCell id="22" value=".close()" style="whiteSpace=wrap;html=1;" vertex="1" parent="1">
                    <mxGeometry x="43" y="465" width="140" height="60" as="geometry"/>
                </mxCell>
                <mxCell id="23" value="el servidor cierra la&lt;br&gt;conexión" style="text;html=1;align=center;verticalAlign=middle;resizable=0;points=[];autosize=1;strokeColor=none;fillColor=none;" vertex="1" parent="1">
                    <mxGeometry x="183" y="475" width="120" height="40" as="geometry"/>
                </mxCell>
                <mxCell id="26" style="edgeStyle=none;html=1;entryX=0.5;entryY=0;entryDx=0;entryDy=0;" edge="1" parent="1" source="25" target="10">
                    <mxGeometry relative="1" as="geometry"/>
                </mxCell>
                <mxCell id="25" value="Socket()" style="whiteSpace=wrap;html=1;" vertex="1" parent="1">
                    <mxGeometry x="468" y="65" width="140" height="60" as="geometry"/>
                </mxCell>
                <mxCell id="32" style="edgeStyle=none;html=1;entryX=0.5;entryY=0;entryDx=0;entryDy=0;" edge="1" parent="1" source="27" target="30">
                    <mxGeometry relative="1" as="geometry"/>
                </mxCell>
                <mxCell id="27" value="Socket(direccion, puerto)" style="whiteSpace=wrap;html=1;" vertex="1" parent="1">
                    <mxGeometry x="458" y="265" width="160" height="60" as="geometry"/>
                </mxCell>
                <mxCell id="29" value="nos conectamos al servidor&lt;br&gt;con los parametros de antes" style="text;html=1;align=center;verticalAlign=middle;resizable=0;points=[];autosize=1;strokeColor=none;fillColor=none;" vertex="1" parent="1">
                    <mxGeometry x="618" y="275" width="170" height="40" as="geometry"/>
                </mxCell>
                <mxCell id="34" value="" style="edgeStyle=none;html=1;" edge="1" parent="1" source="30" target="33">
                    <mxGeometry relative="1" as="geometry"/>
                </mxCell>
                <mxCell id="30" value="getInetAddress()&lt;br&gt;getPort()" style="whiteSpace=wrap;html=1;" vertex="1" parent="1">
                    <mxGeometry x="458" y="365" width="160" height="60" as="geometry"/>
                </mxCell>
                <mxCell id="31" value="cerramos la conexión con&lt;br&gt;el servidor" style="text;html=1;align=center;verticalAlign=middle;resizable=0;points=[];autosize=1;strokeColor=none;fillColor=none;" vertex="1" parent="1">
                    <mxGeometry x="618" y="475" width="160" height="40" as="geometry"/>
                </mxCell>
                <mxCell id="33" value="Socket.close()" style="whiteSpace=wrap;html=1;" vertex="1" parent="1">
                    <mxGeometry x="458" y="465" width="160" height="60" as="geometry"/>
                </mxCell>
                <mxCell id="37" value="estos métodos nos devuelve&lt;br&gt;tanto la dirección como el&lt;br&gt;puerto al que estamos conectados" style="text;html=1;align=center;verticalAlign=middle;resizable=0;points=[];autosize=1;strokeColor=none;fillColor=none;" vertex="1" parent="1">
                    <mxGeometry x="618" y="365" width="210" height="60" as="geometry"/>
                </mxCell>
                <mxCell id="41" value="" style="edgeStyle=segmentEdgeStyle;endArrow=classic;html=1;curved=0;rounded=0;endSize=8;startSize=8;exitX=0.75;exitY=0;exitDx=0;exitDy=0;" edge="1" parent="1" source="19">
                    <mxGeometry width="50" height="50" relative="1" as="geometry">
                        <mxPoint x="390" y="370" as="sourcePoint"/>
                        <mxPoint x="540" y="340" as="targetPoint"/>
                        <Array as="points">
                            <mxPoint x="148" y="340"/>
                            <mxPoint x="440" y="340"/>
                        </Array>
                    </mxGeometry>
                </mxCell>
            </root>
        </mxGraphModel>
    </diagram>
</mxfile>